<?xml version="1.0" standalone="no"?><!DOCTYPE svg PUBLIC "-//W3C//DTD SVG 1.1//EN" "http://www.w3.org/Graphics/SVG/1.1/DTD/svg11.dtd"><svg t="1501830238100" class="icon" style="" viewBox="0 0 1024 1024" version="1.1" xmlns="http://www.w3.org/2000/svg" p-id="964" xmlns:xlink="http://www.w3.org/1999/xlink" width="200" height="200"><defs><style type="text/css"></style></defs><path d="M419.648 64h465.536c7.04 2.624 15.616 4.16 20.16 10.88 7.552 10.56 4.672 24.32 5.184 36.35199999999999v637.952c0.192 8.32-1.408 17.408-7.871999999999999 23.296-7.04 7.04-17.472 6.464-26.624 7.168-25.6 0.96-618.112-3.328-659.2 2.304-36.224 5.248-61.696 46.912-49.664 81.92 7.615999999999999 29.311999999999998 37.248 47.872 66.496 46.912 193.792 0.192 434.56 0 628.288 0.064 0.256-21.184-0.512-42.432 0.192-63.616-0.256-12.928 11.008-24.959999999999997 23.936-24.64 12.992-0.448 24.448 11.648 24.32 24.64 0.256 29.184 0.256 58.432 0 87.68 0.384 14.592-13.439999999999998 26.431999999999995-27.648 24.959999999999997H273.79200000000003c-22.208-0.64-44.8 1.856-66.752-2.56a112.576 112.576 0 0 1-79.616-60.416c-8.576-15.552-10.624-33.408-14.08-50.56V179.584c3.072-15.808000000000002 5.12-32.128 11.904-46.848a113.536 113.536 0 0 1 81.792-65.024c8.128-1.408 14.208-2.56 23.68-3.712v23.68c0.128 174.464 0 542.528 0 542.528 29.696-33.728 96.448-102.72 96.448-102.72l92.608 103.488" fill="#ffffff" p-id="965"></path></svg>