<?xml version="1.0" standalone="no"?><!DOCTYPE svg PUBLIC "-//W3C//DTD SVG 1.1//EN" "http://www.w3.org/Graphics/SVG/1.1/DTD/svg11.dtd"><svg t="1501830235745" class="icon" style="" viewBox="0 0 1000 1000" version="1.1" xmlns="http://www.w3.org/2000/svg" p-id="855" xmlns:xlink="http://www.w3.org/1999/xlink" width="200" height="200"><defs><style type="text/css"></style></defs><path d="M888.4132977777776 129.36988444444444h-766.4457955555556c-23.516728888888892 0-42.580195555555555 19.066879999999998-42.580195555555555 42.587022222222224v681.2649244444444c0 23.50762666666667 19.063466666666667 42.55175111111111 42.580195555555555 42.55175111111111h766.4457955555556c23.516728888888892 0 42.580195555555555-19.045262222222224 42.580195555555555-42.55175111111111v-681.2637866666666c0-23.521279999999997-19.063466666666667-42.588159999999995-42.580195555555555-42.588159999999995zM803.2494933333332 768.0489244444445h-596.1170488888889v-212.87936l127.73603555555555-127.7485511111111 212.9043911111111 212.9009777777778 127.73603555555555-127.75651555555555 127.73944888888889 127.75651555555555v127.72579555555555zM718.0891022222222 427.4232888888889c-47.033457777777784 0-85.15470222222221-38.120106666666665-85.15470222222221-85.15242666666666 0-47.048248888888885 38.12124444444444-85.15583999999998 85.15470222222221-85.15583999999998s85.15925333333333 38.10759111111111 85.15925333333333 85.15583999999998c0 47.03004444444444-38.125795555555555 85.15242666666666-85.15925333333333 85.15242666666666z" fill="#ffffff" p-id="856"></path></svg>